<?xml version="1.0" encoding="utf-8"?>
<!-- Generator: Adobe Illustrator 16.0.0, SVG Export Plug-In . SVG Version: 6.00 Build 0)  -->
<!DOCTYPE svg PUBLIC "-//W3C//DTD SVG 1.1//EN" "http://www.w3.org/Graphics/SVG/1.1/DTD/svg11.dtd">
<svg version="1.1" id="Calque_1" xmlns="http://www.w3.org/2000/svg" xmlns:xlink="http://www.w3.org/1999/xlink" x="0px" y="0px"
	 width="960px" height="560px" viewBox="0 0 960 560" enable-background="new 0 0 960 560" xml:space="preserve">
<path fill="none" stroke="#662D91" stroke-width="24" stroke-miterlimit="10" d="M-22.513,283
	c11.144-8.022,29.46-9.273,42.83-10.176c20.325-1.372,43.135-1.67,63.337,0.87c53.029,6.669,105.766,17.26,158.408,25.948
	c28.626,4.725,56.8,9.985,85.917,11.396c32.121,1.556,62.345,5.014,91.812-9.854c46.291-23.356,88.432-52.344,137.004-71.456
	c34.946-13.75,74.087-10.191,111.339-10.191c48.049,0,94.486,8.687,141.676,16.292c23.346,3.762,54.541,11.616,77.661,4.733
	c8.18-2.435,14.551-8.954,21.357-13.741c10.971-7.714,21.726-15.91,34.38-20.948c12.712-5.062,25.086-17.571,38.869-19.671"/>
<path fill="none" stroke="#006837" stroke-width="24" stroke-miterlimit="10" d="M-47.641,463.513
	c5.297-6.653,30.987-3.256,38.416-2.224c17.557,2.441,38.898,8.644,54.535,17.118c13.025,7.06,25.251,15.878,38.759,22.057
	c22.996,10.519,48.219,15.185,73.238,17.368c33.047,2.886,69.243,5.363,102.318,1.468c19.7-2.321,38.645-7.23,57.721-12.257
	c17.356-4.572,35.688-10.613,53.356-13.643c26.968-4.625,55.221-9.126,80.337-20.554c12.388-5.636,24.669-11.472,37.062-17.088
	c13.772-6.241,28.154-9.164,42.536-13.589c28.423-8.742,58.92-10.629,88.235-15.058c14.746-2.228,29.562-3.919,44.315-5.99
	c14.586-2.048,28.236-7.854,42.362-11.67c26.385-7.129,51.446-14.104,78.459-18.478c16.307-2.641,32.613-5.002,48.923-7.788
	c37.243-6.364,68.576-28.237,96.771-52.739c9.952-8.648,21.378-18.162,29.428-28.68c3.132-4.091,4.656-7.937,9.895-10.05"/>
<path fill="none" stroke="#2E3192" stroke-width="24" stroke-miterlimit="10" d="M-47.897,227.718
	c9.165-6.066,14.74-20.817,20.932-29.749c9.565-13.797,18.277-28.747,30.217-40.748c9.78-9.829,25.635-20.968,39.54-24.084
	c8.502-1.905,19.413-0.504,28.077-0.321c16.411,0.347,32.214,4.344,48.619,4.544c23.767,0.291,49.116,3.321,70.936-7.747
	c17.138-8.693,35.314-19.343,46.053-35.821c5.153-7.908,7.355-16.366,11.248-24.71c7.118-15.257,21.505-28.601,34.787-38.422
	c12.011-8.881,23.49-17.993,37.339-24.252c22.043-9.962,46.35-17.598,70.072-22.279"/>
</svg>
